<?xml version="1.0" encoding="UTF-8" standalone="no"?>
<svg
   version="1.1"
   width="400pt"
   height="220pt"
   id="svg40"
   viewBox="70 70 400 220"
   xmlns:inkscape="http://www.inkscape.org/namespaces/inkscape"
   xmlns:sodipodi="http://sodipodi.sourceforge.net/DTD/sodipodi-0.dtd"
   xmlns="http://www.w3.org/2000/svg"
   xmlns:svg="http://www.w3.org/2000/svg">
  <defs
     id="defs44" />
  <sodipodi:namedview
     id="namedview42"
     pagecolor="#ffffff"
     bordercolor="#000000"
     borderopacity="0.25"
     inkscape:showpageshadow="2"
     inkscape:pageopacity="0.0"
     inkscape:pagecheckerboard="0"
     inkscape:deskcolor="#d1d1d1"
     inkscape:document-units="pt" />
  <g
     id="Layer1000">
    <path
       d="m 210.6999,269.1875 c 0.0275,0.8345 -0.4948,1.54 -1.5669,2.1151 -1.0722,0.5735 -2.2771,0.9069 -3.6163,0.9972 -1.0056,0.0678 -1.9865,-1.0598 -2.9428,-3.3798 -0.9578,-2.3214 -1.5156,-5.9036 -1.675,-10.748 -0.2273,-9.4428 -0.4555,-20.8534 -0.6859,-34.2302 -0.2305,-13.3768 -0.3732,-23.4541 -0.4281,-30.2304 0.003,-2.4278 0.3697,-4.7125 1.096,-6.8539 0.7263,-2.1414 2.0949,-3.2806 4.1031,-3.4161 0.6703,-0.0452 1.121,0.2803 1.3535,0.9764 0.2325,0.6961 0.3824,2.0459 0.4483,4.0508 0.003,0.0829 -0.009,0.3565 -0.0355,0.818 -0.0279,0.4631 -0.0218,1.2783 0.0166,2.4472 -0.7843,22.067 -0.8331,43.5402 -0.1463,64.4195 0.0879,2.6738 0.7894,5.4722 2.1015,8.397 1.3121,2.9248 1.9723,4.47 1.9778,4.6372 z"
       style="fill:#1b1918;fill-rule:evenodd"
       id="path2" />
    <g
       id="Layer1001">
      <path
         d="m 181.1723,266.3986 c -0.029,0.8364 -0.4075,1.486 -1.1353,1.9457 -0.7279,0.4613 -1.5501,0.6496 -2.4681,0.5651 -1.1687,-0.0831 -1.962,-1.9665 -2.3784,-5.6504 -0.4164,-3.6823 -0.7388,-10.6718 -0.9671,-20.9685 -0.0983,-6.7804 -0.1617,-13.4139 -0.1871,-19.9022 -0.0269,-6.4867 -0.0208,-11.489 0.0181,-15.0038 0.032,-0.9209 0.2028,-1.612 0.5109,-2.0718 0.3097,-0.4612 0.8827,-0.691 1.7191,-0.691 1.9264,0 3.112,0.7949 3.5595,2.3861 0.446,1.5898 0.5921,4.6449 0.4352,9.1651 l -0.6405,14.817 c -0.2935,8.4547 -0.2782,15.2351 0.0473,20.3412 -0.009,0.2506 0.2749,2.9304 0.851,8.0365 0.4638,3.5148 0.6761,5.8594 0.6354,7.031 z"
         style="fill:#1b1918;fill-rule:evenodd"
         id="path4" />
      <path
         d="m 180.7745,187.4185 c -0.0436,1.2562 -1.446,1.8835 -4.2089,1.8835 -1.4237,0 -2.8463,-0.5858 -4.2709,-1.7574 -1.4245,-1.1716 -2.1237,-2.1341 -2.0976,-2.8875 0.032,-0.9209 0.503,-1.8003 1.41,-2.6368 0.9085,-0.8379 1.8232,-1.2561 2.7441,-1.2561 0,0 0.3093,0.1053 0.9308,0.3144 0.6201,0.2091 1.3331,0.7741 2.1375,1.6951 0.6472,0.6688 1.37,1.5483 2.1686,2.6368 0.8001,1.0886 1.1951,1.7574 1.1864,2.008 z"
         style="fill:#1b1918;fill-rule:evenodd"
         id="path6" />
    </g>
    <g
       id="Layer1002">
      <path
         d="m 323.0598,142.5519 c 0.5214,6.0969 -0.3617,11.358 -0.8608,15.9243 -0.5494,5.0121 -2.2083,9.7355 -4.9804,14.167 -2.769,4.4315 -7.1091,6.6473 -13.0188,6.6473 -2.8645,0 -5.605,-0.8946 -8.2234,-2.6853 -2.6168,-1.7907 -4.7658,-4.1174 -6.4474,-6.9835 -2.1009,-3.5798 -3.3673,-8.4824 -3.7956,-14.7047 -0.4284,-6.2222 -0.014,-12.5332 1.2414,-18.9347 1.257,-6.4015 3.1839,-11.6609 5.7807,-15.7784 1.7373,-2.6853 3.313,-4.4982 4.7321,-5.4387 1.4175,-0.9406 2.8876,-1.4101 4.4087,-1.4101 1.4322,0 3.1728,0.4473 5.2204,1.3434 2.0475,0.8946 4.0803,2.1476 6.1001,3.7591 2.0213,1.6114 3.6348,3.4481 4.8432,5.5069 1.6261,2.7725 2.8465,5.4006 2.9441,7.9225 0.1335,3.4276 1.759,7.212 2.0557,10.6649 z m -21.2344,29.487 c 4.8343,0 8.4382,-1.7907 10.8132,-5.3705 2.3749,-3.5814 3.8713,-7.8559 4.4924,-12.8251 0.6195,-4.9693 0.9515,-11.0789 0.9927,-18.3305 -0.5023,-2.6852 -1.6737,-5.5957 -3.5106,-8.7282 -1.1048,-1.8811 -2.6229,-3.5148 -4.5559,-4.9026 -1.9346,-1.3879 -3.8408,-2.081 -5.7218,-2.081 -2.238,0 -4.2084,1.5211 -5.9125,4.5664 -2.0331,3.4005 -3.6181,7.9447 -4.7603,13.6292 -1.1389,5.6846 -1.5578,11.3025 -1.2534,16.8538 0.3028,5.5513 1.4001,9.9369 3.2905,13.1598 1.5779,2.6869 3.6181,4.0287 6.1257,4.0287 z"
         style="fill:#1b1918;fill-rule:evenodd"
         id="path9" />
      <path
         d="m 315.2731,102.357 c 0.3998,2.0809 -0.1144,3.8797 -0.3867,5.4385 -0.2999,1.711 -1.318,3.3246 -3.0538,4.839 -1.7331,1.5128 -4.5018,2.2689 -8.3007,2.2689 -1.8418,0 -3.6143,-0.3055 -5.3165,-0.9164 -1.7006,-0.6126 -3.1079,-1.4078 -4.2197,-2.3849 -1.3886,-1.2235 -2.2522,-2.8977 -2.5945,-5.0215 -0.3389,-2.1264 -0.1385,-4.2816 0.5997,-6.4676 0.739,-2.1828 -0.1897,-8.677 1.1583,-10.2727 1.3856,0.0991 4.4804,3.3473 5.3805,3.0283 0.8988,-0.3201 1.8439,-0.4821 2.8188,-0.4821 0.9852,0 6.6105,1.0963 7.3547,1.1553 1.3281,0.1057 3.4415,-3.7979 5.4623,-4.3704 1.074,0.9446 -0.1517,8.5898 -0.0637,9.4466 0.1177,1.1705 0.9369,2.5614 1.1613,3.739 z m -13.3449,10.0695 c 3.1084,0 5.4068,-0.612 6.8979,-1.8329 1.4884,-1.2235 2.405,-2.6827 2.7545,-4.3791 0.6473,-3.1707 1.0639,-5.4787 -1.9038,-9.2425 -0.6004,-0.7621 -1.7221,-1.1997 -2.9803,-1.6726 -1.2583,-0.4733 -2.4908,-0.7122 -3.6993,-0.7122 -1.44,0 -2.6907,0.5205 -3.7556,1.5604 -1.2716,1.1613 -2.2434,2.7126 -2.9193,4.6538 -0.6708,1.9412 -0.8822,3.8602 -0.6281,5.757 0.2527,1.8952 1.0038,3.3917 2.2523,4.4934 1.0455,0.9165 2.3693,1.3747 3.9817,1.3747 z"
         style="fill:#1b1918;fill-rule:evenodd"
         id="path11" />
    </g>
    <path
       d="m 276.8251,176.1759 c 0.0275,0.8345 -0.4948,1.54 -1.567,2.115 -1.0721,0.5736 -2.277,0.9069 -3.6163,0.9973 -1.0055,0.0678 -1.9865,-1.0598 -2.9427,-3.3798 -0.9578,-2.3215 -1.5156,-5.9037 -1.675,-10.7481 -0.2274,-9.4428 -0.4555,-20.8534 -0.686,-34.2302 -0.2304,-13.3768 -0.3731,-23.4541 -0.428,-30.2303 0.003,-2.4278 0.3697,-4.7125 1.0959,-6.8539 0.7263,-2.1414 2.095,-3.2807 4.1031,-3.4161 0.6704,-0.0453 1.1211,0.2802 1.3536,0.9764 0.2324,0.6961 0.3824,2.0458 0.4483,4.0508 0.003,0.0828 -0.009,0.3565 -0.0355,0.818 -0.0279,0.463 -0.0219,1.2782 0.0166,2.4472 -0.7844,22.067 -0.8331,43.5402 -0.1463,64.4195 0.0879,2.6737 0.7894,5.4722 2.1015,8.397 1.3121,2.9248 1.9723,4.47 1.9778,4.6372 z"
       style="fill:#1b1918;fill-rule:evenodd"
       id="path14" />
    <path
       d="m 379.2335,258.6624 c 0.0947,0.2384 0.2167,0.4514 0.3642,0.6334 0.1564,0.3442 0.4184,0.6968 0.7906,1.0593 0.8548,0.8295 1.9093,1.4826 3.1694,1.9552 0.9458,0.3583 2.2395,-0.3611 3.878,-2.1555 1.64,-1.7929 3.3135,-4.8229 4.9409,-9.1169 3.1708,-8.3679 2.0401,-5.0515 6.4066,-16.9446 4.3665,-11.8931 7.6445,-20.8591 9.7802,-26.9079 0.7648,-2.1668 1.1042,-4.3251 1.0696,-6.4523 -0.0347,-2.1286 -0.9986,-3.5506 -2.8858,-4.2615 -0.63,-0.237 -1.1656,-0.0804 -1.6051,0.4739 -0.4381,0.553 -1.0022,1.7168 -1.6864,3.49 -0.0269,0.0733 -0.1024,0.3216 -0.2191,0.742 -0.1166,0.4203 -0.4483,1.1256 -0.7745,2.1836 -6.1579,19.9408 -7.8304,25.7188 -14.9615,44.1869 -0.7913,2.051 -2.0575,4.0499 -3.7942,5.998 -0.8628,-3.5675 -2.802,-9.8914 -5.8149,-18.9773 -2.1113,-6.2026 -4.2085,-12.2613 -6.2944,-18.1761 -2.083,-5.9134 -3.7143,-10.4655 -4.8925,-13.6536 -0.3298,-0.828 -0.7142,-1.405 -1.1516,-1.728 -0.439,-0.3244 -1.0497,-0.3569 -1.8307,-0.0987 -1.8009,0.5952 -2.651,1.6843 -2.5515,3.2712 0.0994,1.5856 0.9559,4.4111 2.5725,8.478 l 5.4147,13.2924 c 3.0211,7.6062 5.2116,13.7834 6.5669,18.533 0.0898,0.2257 0.6951,2.7521 1.816,7.5793 0.7092,3.3418 1.273,5.5424 1.6926,6.5962 z"
       style="fill:#1b1918;fill-rule:evenodd"
       id="path16" />
    <path
       d="m 134.4206,269.4865 c -0.1421,0.388 -0.3251,0.7348 -0.5465,1.031 -0.2347,0.5603 -0.6279,1.1343 -1.1863,1.7244 -1.2828,1.3502 -2.8653,2.4134 -4.756,3.1826 -1.4195,0.5832 -3.3607,-0.5878 -5.8195,-3.5086 -2.461,-2.9185 -4.9723,-7.8508 -7.4143,-14.8405 -4.7581,-13.6211 -3.0615,-8.2227 -9.6139,-27.5821 -6.5524,-19.3594 -11.4714,-33.9541 -14.6763,-43.8003 -1.1476,-3.527 -1.657,-7.0402 -1.605,-10.5029 0.052,-3.465 1.4985,-5.7796 4.3304,-6.9369 0.9454,-0.3857 1.7514,-0.1309 2.4087,0.7716 1.7466,2.3903 1.8954,7.4259 2.8565,10.8105 9.2317,32.4593 11.7822,42.1769 22.4811,72.2367 1.1874,3.3341 4.6199,8.7991 6.4005,10.3123 1.2948,-5.8071 6.1056,-16.8359 10.6269,-31.6281 3.1681,-10.0941 6.4433,-19.4673 9.5691,-29.0953 3.1254,-9.6189 5.0804,-17.5867 6.8484,-22.7762 0.615,-1.6785 1.481,-3.7359 3.3725,-3.403 2.8274,0.496 3.9781,2.7417 3.8289,5.3249 -0.1492,2.581 -1.4345,7.1803 -3.8604,13.8003 l -8.1253,21.6372 c -4.5336,12.3812 -7.8206,22.4364 -9.8544,30.1677 -0.1348,0.3674 -1.0432,4.4799 -2.7251,12.3376 -1.0643,5.4397 -1.9103,9.0218 -2.54,10.7371 z"
       style="fill:#1b1918;fill-rule:evenodd"
       id="path18" />
    <path
       d="m 232.3619,260.4654 c -0.7279,0.4612 -1.5501,0.6496 -2.4681,0.565 -1.1687,-0.083 -1.962,-1.9665 -2.3784,-5.6503 -0.4164,-3.6824 -0.7388,-10.6719 -0.9671,-20.9685 -0.0983,-6.7804 -0.1617,-13.414 -0.1871,-19.9022 -0.0269,-6.4868 -0.0208,-11.489 0.0181,-15.0038 0.032,-0.921 0.2028,-1.6121 0.5109,-2.0718 0.3097,-0.4612 0.8827,-0.6911 1.7191,-0.6911 1.9265,0 3.112,0.7949 3.5595,2.3862 0.446,1.5898 0.5921,4.6448 0.4352,9.1651 l -0.6404,14.8169 c -0.2936,8.4547 -0.2783,15.2351 0.0472,20.3412 -0.009,0.2506 0.2749,2.9305 0.8511,8.0365 l 0.1633,1.2754 c 0.5564,-1.6298 1.0968,-3.101 1.4813,-3.9671 4.9524,-12.4485 9.5643,-22.9053 13.8342,-31.3719 4.2699,-8.4681 8.2562,-12.9958 11.9607,-13.589 2.6098,-0.4182 4.7125,1.4252 5.1368,5.7334 2.1798,22.1371 3.0361,23.9553 4.6364,48.0901 0.0661,0.9996 -0.4867,1.9294 -1.3525,2.7747 -0.8657,0.8454 -1.8924,1.3689 -3.0674,1.5528 -0.8365,0.132 -1.4258,-0.1513 -1.982,-0.4909 -0.5562,-0.3396 -0.6679,-2.8904 -0.6447,-3.5593 0.5254,-15.1343 -0.8813,-28.0544 -1.7866,-43.2005 -0.1849,-3.0907 -0.8253,-4.5514 -1.9199,-4.375 -2.8619,0.4583 -6.1208,4.4951 -9.7755,12.1149 -3.6546,7.6183 -7.8703,17.5546 -12.6498,29.8073 l -2.0683,5.3256 c -0.4213,1.0307 -1.5063,2.2512 -2.466,2.8563 z"
       style="fill:#1b1918;fill-rule:evenodd"
       id="path20" />
    <path
       d="m 375.3418,150.8742 c -0.2151,2.2497 -0.5013,4.3571 -0.7178,6.334 -0.5502,5.0126 -2.2082,9.7361 -4.9815,14.1673 -2.7688,4.4313 -7.1081,6.647 -13.0179,6.647 -2.8652,0 -5.6058,-0.8943 -8.2233,-2.6858 -2.6176,-1.79 -4.7665,-4.1169 -6.4482,-6.9836 -2.1,-3.5785 -3.3665,-8.4814 -3.795,-14.7042 -0.4286,-6.2228 -0.0134,-12.533 1.2412,-18.9353 1.2576,-6.4007 3.1841,-11.661 5.7808,-15.7779 1.7367,-2.6857 3.3131,-4.498 4.7324,-5.4382 1.4177,-0.9403 2.8874,-1.4104 4.409,-1.4104 1.4311,0 3.1721,0.4479 5.2202,1.3436 2.0466,0.8943 4.0798,2.1474 6.0997,3.7595 2.0213,1.6106 3.6348,3.448 4.8435,5.5065 1.6254,2.7718 2.8459,5.3997 2.9438,7.9223 0.0296,0.7786 0.1379,1.5765 0.2892,2.3847 l 0.2135,-0.1053 c 0.356,-0.1572 1.3852,-0.1735 1.6758,1.1197 0.3055,1.3629 0.7163,2.9898 1.4534,4.7872 5.0215,12.2513 8.7987,21.492 11.2695,27.7296 0.8853,2.2335 1.3451,4.4818 1.4281,6.7167 0.0845,2.2364 -0.7979,3.7802 -2.6427,4.627 -0.6155,0.2833 -1.1598,0.1468 -1.6299,-0.4123 -0.4671,-0.5576 -1.0974,-1.7485 -1.879,-3.5741 -0.0311,-0.0756 -0.1201,-0.3322 -0.261,-0.7667 -0.1379,-0.436 -0.5101,-1.1582 -0.8942,-2.2512 -3.0002,-8.5141 -5.1016,-14.5292 -7.1096,-20.0001 z m -4.8406,-12.9958 c 0.0371,-3.316 0.0356,-1.219 0.0475,-3.6334 -0.5028,-2.6858 -1.6744,-5.5955 -3.5103,-8.7291 -1.1049,-1.8805 -2.6235,-3.5148 -4.5559,-4.9014 -1.9353,-1.3881 -3.841,-2.0822 -5.7229,-2.0822 -2.2379,0 -4.2074,1.5216 -5.9114,4.5678 -2.0332,3.4005 -3.6185,7.9445 -4.7604,13.629 -1.139,5.6844 -1.5587,11.3021 -1.2532,16.8531 0.3025,5.551 1.4,9.9378 3.2893,13.1604 1.578,2.6857 3.6186,4.0279 6.1264,4.0279 4.8346,0 8.4384,-1.79 10.8127,-5.3701 2.3758,-3.5815 3.8721,-7.8556 4.492,-12.8252 0.5132,-4.1169 0.829,-9.0138 0.9462,-14.6968 z"
       style="fill:#1b1918;fill-rule:evenodd"
       id="path22" />
    <path
       d="m 319.7119,105.1602 c -0.4743,0.0528 -0.8984,-0.0312 -1.2713,-0.2522 -0.372,-0.2211 -0.6129,-0.4868 -0.7208,-0.7977 -0.0811,-0.2334 0.52,-0.5275 1.8016,-0.8819 1.2823,-0.3549 3.2999,-0.6854 6.0535,-0.9921 5.3709,-0.5781 11.863,-1.2657 19.4753,-2.0631 7.6123,-0.7973 13.3483,-1.3907 17.2071,-1.78 1.3835,-0.134 2.7008,-0.1745 3.9516,-0.1221 1.2508,0.0523 1.9577,0.3119 2.1197,0.7781 0.054,0.1557 -0.1124,0.28 -0.4993,0.3736 -0.3868,0.0935 -1.1496,0.2038 -2.2892,0.3307 -0.0471,0.0053 -0.2035,0.0177 -0.4676,0.0371 -0.265,0.0191 -0.7293,0.0658 -1.3937,0.1398 -12.6068,1.0406 -24.8442,2.2218 -36.7122,3.5435 -1.5198,0.1692 -3.0847,0.4902 -4.6959,0.9621 -1.6112,0.472 -2.4638,0.7136 -2.5588,0.7242 z"
       style="fill:#1b1918;fill-rule:evenodd;stroke:#1b1918;stroke-width:0.2835;stroke-linecap:butt;stroke-linejoin:miter;stroke-dasharray:none"
       id="path24" />
    <path
       d="m 319.5117,105.4872 c -0.4464,-0.0431 -0.8396,-0.212 -1.1787,-0.5067 -0.3383,-0.2947 -0.5517,-0.6073 -0.6388,-0.9381 -0.0654,-0.2484 0.5105,-0.4196 1.7261,-0.5139 1.2162,-0.0945 3.1197,-0.0167 5.711,0.233 5.0534,0.507 11.1612,1.131 18.3226,1.8715 7.1614,0.7405 12.5572,1.3058 16.1867,1.6959 1.3011,0.1454 2.5359,0.3705 3.7044,0.6744 1.1684,0.304 1.8185,0.7044 1.9491,1.2004 0.0435,0.1656 -0.1179,0.2557 -0.4842,0.2708 -0.3663,0.015 -1.0852,-0.0289 -2.1576,-0.1323 -0.0444,-0.004 -0.1914,-0.0234 -0.4394,-0.0573 -0.249,-0.0343 -0.6856,-0.0814 -1.3109,-0.1417 -11.8474,-1.5045 -23.3553,-2.7949 -34.5238,-3.8712 -1.4301,-0.1378 -2.9094,-0.134 -4.4388,0.0107 -1.5294,0.1446 -2.3383,0.2131 -2.4277,0.2045 z"
       style="fill:#1b1918;fill-rule:evenodd;stroke:#1b1918;stroke-width:0.2835;stroke-linecap:butt;stroke-linejoin:miter;stroke-dasharray:none"
       id="path26" />
    <g
       id="Layer1003">
      <path
         d="m 288.3426,106.8444 c 0.3089,0.0235 0.5726,-0.0861 0.7905,-0.3289 0.2173,-0.2429 0.3463,-0.5222 0.3858,-0.8383 0.0298,-0.2373 -0.3833,-0.4932 -1.2382,-0.7675 -0.8553,-0.2747 -2.1794,-0.4801 -3.9728,-0.6166 -3.496,-0.2464 -7.7208,-0.533 -12.6738,-0.8602 -4.9529,-0.3273 -8.6843,-0.5665 -11.1936,-0.7176 -0.8992,-0.0486 -1.747,-0.008 -2.5433,0.1206 -0.7964,0.1288 -1.2246,0.4305 -1.284,0.9045 -0.0198,0.1583 0.0987,0.2719 0.3554,0.3413 0.2568,0.0693 0.756,0.1324 1.4982,0.1889 0.0306,0.002 0.132,0.005 0.3031,0.008 0.1716,0.003 0.4735,0.0208 0.9062,0.0538 8.176,0.2633 16.1287,0.6892 23.858,1.2777 0.9898,0.0753 2.023,0.2989 3.1002,0.67 1.0772,0.371 1.6464,0.5593 1.7083,0.564 z"
         style="fill:#1b1918;fill-rule:evenodd;stroke:#1b1918;stroke-width:0.216;stroke-linecap:butt;stroke-linejoin:miter;stroke-dasharray:none"
         id="path28" />
      <path
         d="m 288.4269,107.1648 c 0.3003,-0.0719 0.5523,-0.2657 0.7555,-0.5812 0.2026,-0.3154 0.3184,-0.6406 0.3463,-0.9756 0.0209,-0.2515 -0.3881,-0.3843 -1.226,-0.3989 -0.8384,-0.0147 -2.129,0.1868 -3.8722,0.6044 -3.3977,0.8343 -7.5034,1.8539 -12.3163,3.0581 -4.813,1.2042 -8.4387,2.1189 -10.8766,2.744 -0.8733,0.2296 -1.694,0.5341 -2.4618,0.913 -0.7679,0.3788 -1.173,0.8197 -1.2148,1.322 -0.014,0.1677 0.1046,0.2469 0.3559,0.238 0.2512,-0.009 0.7373,-0.0996 1.4587,-0.2724 0.0298,-0.007 0.1283,-0.0358 0.2942,-0.0857 0.1665,-0.0505 0.4598,-0.1258 0.8804,-0.2266 7.9357,-2.2704 15.6603,-4.3055 23.1738,-6.1054 0.9621,-0.2305 1.9712,-0.3232 3.0279,-0.2789 1.0567,0.0443 1.6148,0.0596 1.675,0.0452 z"
         style="fill:#1b1918;fill-rule:evenodd;stroke:#1b1918;stroke-width:0.216;stroke-linecap:butt;stroke-linejoin:miter;stroke-dasharray:none"
         id="path30" />
    </g>
    <path
       d="m 452.2455,235.201 c -0.2151,2.2497 -0.5013,4.3571 -0.7178,6.334 -0.5502,5.0126 -2.2082,9.7361 -4.9815,14.1674 -2.7688,4.4312 -7.1081,6.6469 -13.0179,6.6469 -2.8652,0 -5.6058,-0.8943 -8.2233,-2.6858 -2.6176,-1.79 -4.7665,-4.1169 -6.4482,-6.9836 -2.1,-3.5785 -3.3665,-8.4814 -3.7951,-14.7042 -0.4285,-6.2227 -0.0133,-12.533 1.2413,-18.9352 1.2576,-6.4008 3.1841,-11.6611 5.7808,-15.778 1.7367,-2.6857 3.3131,-4.498 4.7324,-5.4382 1.4177,-0.9403 2.8874,-1.4104 4.409,-1.4104 1.4311,0 3.1721,0.4479 5.2202,1.3436 2.0466,0.8943 4.0798,2.1475 6.0996,3.7595 2.0214,1.6106 3.6349,3.448 4.8436,5.5065 1.6254,2.7718 2.8459,5.3997 2.9438,7.9223 0.0296,0.7786 0.1379,1.5765 0.2892,2.3847 l 0.2135,-0.1053 c 0.3559,-0.1572 1.3852,-0.1735 1.6758,1.1197 0.3055,1.3629 0.7163,2.9898 1.4534,4.7872 5.0215,12.2513 8.7987,21.492 11.2695,27.7297 0.8853,2.2334 1.3451,4.4817 1.4281,6.7166 0.0845,2.2364 -0.7979,3.7802 -2.6427,4.627 -0.6155,0.2833 -1.1598,0.1468 -1.6299,-0.4123 -0.4671,-0.5576 -1.0974,-1.7484 -1.879,-3.574 -0.0311,-0.0757 -0.1201,-0.3322 -0.261,-0.7668 -0.1379,-0.436 -0.5101,-1.1582 -0.8942,-2.2512 -3.0002,-8.5141 -5.1016,-14.5292 -7.1096,-20.0001 z m -4.8406,-12.9958 c 0.0371,-3.316 0.0356,-1.219 0.0475,-3.6334 -0.5028,-2.6857 -1.6744,-5.5954 -3.5103,-8.7291 -1.1049,-1.8805 -2.6235,-3.5148 -4.5559,-4.9014 -1.9353,-1.3881 -3.841,-2.0822 -5.7229,-2.0822 -2.2379,0 -4.2074,1.5216 -5.9114,4.5678 -2.0332,3.4006 -3.6185,7.9445 -4.7605,13.629 -1.1389,5.6844 -1.5586,11.3021 -1.2531,16.8531 0.3025,5.551 1.4,9.9378 3.2893,13.1604 1.578,2.6857 3.6186,4.0279 6.1264,4.0279 4.8346,0 8.4384,-1.79 10.8127,-5.3701 2.3758,-3.5815 3.8721,-7.8556 4.492,-12.8252 0.5132,-4.1169 0.829,-9.0138 0.9462,-14.6968 z"
       style="fill:#1b1918;fill-rule:evenodd"
       id="path33" />
    <path
       d="m 203.9199,80.0514 c 4.2172,1.7666 3.6213,-3.0076 1.9586,-3.3653 -4.1234,-0.8913 -6.4928,-0.8333 -9.2742,1.5947 -8.6109,7.522 -12.8687,19.4444 -15.6044,32.2461 -2.7339,12.7997 -2.8955,25.1818 -0.4799,37.1381 1.4128,6.9944 4.0738,12.9716 7.9796,17.9356 3.9058,4.962 8.4419,8.715 13.5979,11.251 7.2102,3.5471 14.3336,2.7657 18.7326,2.0503 4.3716,-0.7134 8.2028,-2.5299 13.7588,-7.384 18.5672,-16.225 26.6251,-47.5558 13.2056,-71.3047 -3.6503,-6.4608 -12.4703,-12.448 -19.3685,-14.0087 -7.5983,-1.7187 -11.2487,-0.6995 -17.7823,8.0875 -5.984,8.0495 -6.6786,25.5474 2.57,36.009 0.5474,0.6215 5.7112,2.434 6.3136,0.0759 0.3925,-1.5307 -0.0325,-1.9744 -1.6966,-3.2473 -9.1012,-6.9624 -9.4669,-28.1474 4.1797,-34.2545 5.903,-2.6399 18.386,7.49 20.5804,14.4064 1.1232,3.5352 2.0917,6.9684 2.8969,14.3065 0.8177,7.456 -0.0592,16.2669 -2.2558,25.2277 -3.8362,10.8633 -9.1632,20.5095 -20.3449,24.858 -7.9848,3.1055 -16.0554,1.6727 -24.8605,-5.9892 -4.9891,-4.3405 -8.4559,-11.3089 -10.3937,-20.8951 -2.0755,-10.2658 -2.0516,-20.8153 0.0649,-31.6406 2.1166,-10.8273 3.1953,-17.2701 9.2686,-26.7965 2.2478,-3.5231 4.0912,-7.5019 6.9536,-6.3009 z"
       style="fill:#1b1918;fill-rule:evenodd"
       id="path35" />
    <path
       d="m 331.0589,188.4604 c -0.8359,-0.2902 -1.6551,-0.529 -2.4501,-0.7104 -7.5982,-1.717 -11.2484,-0.6983 -17.7825,8.0894 -5.9839,8.0487 -6.6777,25.5455 2.5695,36.0094 0.5471,0.6212 5.7119,2.4335 6.3134,0.0756 0.393,-1.5311 -0.0317,-1.9755 -1.6958,-3.2482 -9.1022,-6.9633 -9.4664,-28.1482 4.1807,-34.2545 1.9075,-0.854 4.4997,-0.3733 7.2112,0.9008 1.6521,0.6772 3.1091,-5.8509 1.6536,-6.8621 z m 12.2233,7.5257 c -1.6717,-1.5644 -3.5595,-3.0048 -5.5244,-4.2427 -1.1881,-0.4066 -5.8253,4.4543 -4.2866,6.0035 1.7473,1.2546 3.4265,2.7313 4.8775,4.282 1.3755,1.1019 5.8268,-4.9168 4.9335,-6.0428 z m 8.227,13.4929 c -0.916,-2.5514 -2.0405,-5.0483 -3.3903,-7.4682 -1.646,-1.8304 -7.3442,3.1484 -6.4903,4.3213 0.5019,0.8585 0.8918,1.6989 1.1442,2.497 0.3945,1.2424 0.7694,2.4712 1.1261,3.8648 0.5381,1.9664 8.2572,-1.1185 7.6103,-3.2149 z m 2.8657,12.8642 c -0.1995,-2.036 -0.5078,-4.0659 -0.9341,-6.0747 -0.6953,-2.6511 -8.7877,-0.473 -8.57,1.0339 0.2826,1.6475 0.5486,3.5504 0.7995,5.8313 l 0.0816,0.8252 c 0.1452,1.7821 8.8512,0.2237 8.623,-1.6157 z m -0.656,16.0473 c 0.5306,-3.0184 0.8404,-6.0807 0.9115,-9.152 -0.0771,-2.1962 -8.3404,-2.4153 -8.6593,-0.3899 0.005,2.766 -0.1814,5.6544 -0.5426,8.6214 -0.2343,1.7306 7.5906,2.7237 8.2904,0.9205 z m -5.863,17.5392 c 1.7261,-3.416 3.1832,-7.0224 4.273,-10.7436 0.47,-2.4486 -7.0541,-4.1868 -7.5831,-2.0435 -0.325,1.7276 -0.7028,3.4703 -1.1321,5.2191 -0.5336,1.5115 -1.0958,2.9988 -1.6989,4.4513 -0.9069,2.9066 5.9265,3.8467 6.1411,3.1167 z m -12.6102,16.7138 c 3.4734,-3.1121 6.5643,-6.7593 9.2079,-10.7828 0.5804,-1.9045 -4.8201,-3.948 -5.7149,-2.8703 -2.1387,3.7923 -4.7506,7.1674 -8.1091,9.876 -0.9749,1.2953 3.4507,4.5465 4.6161,3.7771 z m -31.144,-91.0467 c 4.2186,1.7684 3.6215,-3.0078 1.9589,-3.3645 -4.1233,-0.8918 -6.4918,-0.8328 -9.2744,1.5961 -8.6094,7.5211 -12.8672,19.4436 -15.6045,32.2458 -2.7327,12.7992 -2.8945,25.1812 -0.4791,37.1369 1.4132,6.9936 4.0749,12.973 7.9791,17.9367 3.9071,4.9622 8.4431,8.7137 13.5987,11.2499 7.2097,3.5475 14.3333,2.766 18.7332,2.0511 2.9429,-0.4807 5.6393,-1.4616 8.7802,-3.5293 1.2878,-1.2258 -1.8606,-5.7935 -3.2633,-5.3098 -1.0867,0.597 -2.2385,1.1351 -3.4598,1.6097 -7.9851,3.1061 -16.0564,1.6732 -24.8622,-5.9885 -4.9879,-4.3394 -8.4552,-11.3088 -10.3929,-20.8946 -2.0768,-10.2659 -2.0526,-20.816 0.065,-31.6412 2.116,-10.8267 3.1952,-17.2701 9.2683,-26.7969 2.2476,-3.5233 4.0916,-7.5 6.9528,-6.3014 z"
       style="fill:#1b1918;fill-rule:evenodd"
       id="path37" />
  </g>
</svg>
